<?xml version="1.0" ?><svg height="32" viewBox="0 0 32 32" width="32" xmlns="http://www.w3.org/2000/svg"><title/><g data-name="1" id="_1"><path d="M30.49,12.12A15,15,0,1,0,29,23.5,14.91,14.91,0,0,0,30.49,12.12Zm-1.93.52A13.35,13.35,0,0,1,29,15.43l-5,2.88V5.77A12.87,12.87,0,0,1,28.56,12.64ZM10,19.46V12.54l6-3.47,6,3.47v6.92l-6,3.47Zm12-15v5.75L11.13,4A13.18,13.18,0,0,1,16,3,12.81,12.81,0,0,1,22,4.48ZM9,5.05l5,2.87L3.13,14.19A12.84,12.84,0,0,1,9,5.05ZM3,16.56l5-2.87V26.23A13,13,0,0,1,3,16.56Zm7,11V21.77L20.86,28A12.94,12.94,0,0,1,10,27.51ZM23,27l-5-2.88L28.88,17.8A13,13,0,0,1,23,27Z" id="lens_aperture_camera_focus"/></g></svg>